<?xml version="1.0" encoding="utf-8"?>

<svg version="1.0" id="Layer_1" xmlns="http://www.w3.org/2000/svg" xmlns:xlink="http://www.w3.org/1999/xlink" x="0px" y="0px"
	 viewBox="0 0 432 115.93" style="enable-background:new 0 0 432 115.93;" xml:space="preserve">
<style type="text/css">
	.st0{fill:#ED2517;}
</style>
<g>
	<path class="st0" d="M59.23,0c-5.92,0-12.26,0-18.19,0c-0.04,24.73-0.07,40.75-0.1,65.48C33.13,41.34,25.3,25.37,17.46,0
		C10.81,0,6.65,0,0,0c0,38.64,0,77.29,0,115.93c5.89-0.84,12.21-1.64,18.11-2.41c0.02-24.23,0.03-39.13,0.05-63.36
		c8.12,23.85,13.11,37.92,21.21,60.59c6.35-0.72,13.32-1.62,19.68-2.26C59.11,72.32,59.17,36.16,59.23,0"/>
	<path class="st0" d="M127.16,0C110.3,0,93.64,0,76.78,0c-0.07,35.65-0.14,71.3-0.2,106.96c16.85-1.53,33.72-2.79,50.61-3.76
		c0.01-5.21,0.02-12.71,0.03-17.92c-10.98,0.67-21.48,1.38-32.42,2.11c0.02-9.58,0.04-17.51,0.06-27.1c8-0.14,16.44-0.02,24.61-0.16
		c0.01-5.24,0.02-12.76,0.03-18c-8.09,0.14-16.64,0.16-24.61,0.31c0.02-9.59,0.04-14.84,0.06-24.43c5.01-0.06,9.92-0.07,14.82-0.07
		c0.86,0,1.72,0,2.58,0c0.86,0,1.71,0,2.57,0c4.09,0,8.19,0,12.37-0.04C127.29,12.7,127.15,5.21,127.16,0"/>
	<path class="st0" d="M195.07,0.08c-18.49,0-37.61,0-56.1,0c-0.01,5.18-0.02,12.64-0.03,17.82c0.8-0.01,1.61-0.01,2.41-0.01
		c2.44,0,4.87,0.02,7.31,0.05c2.43,0.02,4.87,0.05,7.31,0.05c0.62,0,1.25,0,1.87,0c-0.04,28.74-0.08,55-0.11,83.74
		c5.94-0.22,12.29-0.41,18.22-0.56c0.03-28.58,0.05-54.68,0.08-83.26c6.27-0.02,12.75-0.04,19.02-0.06
		C195.07,12.75,195.07,5.17,195.07,0.08"/>
	<path class="st0" d="M257.46,0c-16.86,0-33.73,0-50.59,0c0,33.56-0.01,67.12-0.01,100.67c1.96-0.01,3.93-0.01,5.92-0.01
		c4.05,0,8.12,0.01,12.11,0.05c0-14.24-0.01-27.24-0.01-41.48c0.99,0,2,0.01,3.01,0.01c2.35,0,4.74-0.01,7.14-0.02
		c2.4-0.01,4.81-0.02,7.2-0.02c2.46,0,4.9,0.01,7.29,0.04c0-5.11-0.01-12.7-0.01-17.81c-2.25-0.02-4.55-0.03-6.88-0.03
		c-2.49,0-5,0.01-7.51,0.02c-2.5,0.01-4.99,0.02-7.44,0.02c-0.94,0-1.87,0-2.79,0c0-9.16,0-14.32-0.01-23.48c1.98,0,3.95,0,5.92,0
		c2,0,3.99,0,5.97,0c2.01,0,4.01,0,6.02,0c4.89,0,9.78,0,14.71,0.03C257.47,12.87,257.47,5.12,257.46,0"/>
	<path class="st0" d="M269.27,0.08c0.04,33.88-0.12,67.76-0.07,101.65c16.17,0.6,33.17,1.26,49.32,2.37
		c-0.01-5.21-0.02-12.71-0.03-17.92c-10.22-0.6-20.87-1.32-31.1-1.75c-0.05-29.02,0.11-55.33,0.07-84.35
		C281.53,0.08,275.19,0.08,269.27,0.08"/>
	<path class="st0" d="M333.44,0.08c0.07,35.04,0.14,70.08,0.21,105.12c5.93,0.46,12.06,0.95,17.98,1.48
		c0.02-35.51,0.07-71.06,0-106.59C345.71,0.08,339.37,0.08,333.44,0.08"/>
	<path class="st0" d="M367.22,0.09c7.27,17.72,13.93,35.48,21.31,54.3c-7.68,18.07-15.49,36.03-23.16,53.36
		c6.35,0.63,12.92,1.54,19.27,2.25c4.55-11.17,8.69-19.76,13.25-31.23c4.55,12.21,8.69,21.65,13.22,34.26
		c6.34,0.82,14.55,2,20.88,2.9c-7.67-20.51-16.06-41.86-23.77-61.24c7.68-18.2,15.52-35.57,23.5-54.6c-6.55,0-13.31,0-19.86,0
		c-4.92,11.76-8.31,19.32-13.03,30.51c-4.4-11.65-7.35-19.19-11.75-30.52C380.53,0.09,373.77,0.09,367.22,0.09"/>
</g>
</svg>
